<svg aria-hidden="true" style="position:absolute;width:0;height:0;overflow:hidden" xmlns="http://www.w3.org/2000/svg">
  <defs>
    <symbol id="icon-Bagpipes" viewBox="0 0 32 32">
      <path d="M4.688 5.688H.938a.937.937 0 1 0 0 1.876h.938v3.75h1.875v-3.75h.938a.937.937 0 1 0 0-1.876zM29.188 11.312h-.938V7.389a2.807 2.807 0 0 0 1.875-2.64c0-1.551-1.262-2.813-2.812-2.813s-2.812 1.262-2.812 2.813c0 1.221.786 2.252 1.875 2.64v3.923h-.938a.937.937 0 1 0 0 1.876h.938v1.875h1.875v-1.875h.938c.518 0 .937-.419.937-.938s-.419-.938-.937-.938zM30.125 16.938H6.563a1.877 1.877 0 0 1-1.875-1.875v-.938a.937.937 0 0 0-.938-.937H1.875a.937.937 0 0 0-.938.937v.938a5.63 5.63 0 0 0 5.625 5.625h3.106c.894 5.319 5.508 9.375 11.081 9.375 6.213 0 11.25-5.037 11.25-11.25a1.874 1.874 0 0 0-1.875-1.875zM21.688 11.312h-.938V7.389a2.807 2.807 0 0 0 1.875-2.64c0-1.551-1.262-2.813-2.812-2.813s-2.812 1.262-2.812 2.813c0 1.221.786 2.252 1.875 2.64v3.923h-.938a.937.937 0 1 0 0 1.876h.938v1.875h1.875v-1.875h.938c.518 0 .937-.419.937-.938s-.419-.938-.937-.938z"/>
      <path d="M14.188 11.312h-.938V7.389a2.807 2.807 0 0 0 1.875-2.64c0-1.551-1.262-2.813-2.812-2.813S9.501 3.198 9.501 4.749c0 1.221.786 2.252 1.875 2.64v3.923h-.938a.937.937 0 1 0 0 1.876h.938v1.875h1.875v-1.875h.938c.518 0 .937-.419.937-.938s-.419-.938-.937-.938z"/>
    </symbol>
    <symbol id="icon-Dj-Mixer" viewBox="0 0 32 32">
      <path d="M29.188 5.221H2.813A2.816 2.816 0 0 0 0 8.034v15.932a2.815 2.815 0 0 0 2.813 2.812h26.375A2.815 2.815 0 0 0 32 23.966V8.034a2.816 2.816 0 0 0-2.812-2.813zM10.774 23.157c-3.946 0-7.157-3.211-7.157-7.157s3.211-7.157 7.157-7.157 7.157 3.211 7.157 7.157-3.211 7.157-7.157 7.157zm10.78-9.824v7.963a.938.938 0 0 1-1.876 0v-7.963a.938.938 0 0 1 0-1.728v-.695a.938.938 0 0 1 1.876 0v.695a.938.938 0 0 1 0 1.728zm3.404 6.812v1.152a.938.938 0 1 1-1.875 0v-1.152a.937.937 0 0 1 0-1.728v-7.506a.938.938 0 0 1 1.875 0v7.506a.938.938 0 0 1 0 1.728zm3.403-6.812v7.963a.938.938 0 0 1-1.876 0v-7.963a.938.938 0 0 1 0-1.728v-.695a.938.938 0 0 1 1.876 0v.695a.938.938 0 0 1 0 1.728z"/>
      <path d="M10.774 13.294c-1.492 0-2.706 1.214-2.706 2.706s1.214 2.706 2.706 2.706S13.48 17.492 13.48 16s-1.214-2.706-2.706-2.706zm0 3.537a.832.832 0 0 1 0-1.662.832.832 0 0 1 0 1.662z"/>
    </symbol>
    <symbol id="icon-Guitar" viewBox="0 0 32 32">
      <path d="m19.107 10.225 1.31-1.31 2.705 2.705-1.31 1.31-2.705-2.705zM16.488 12.845l1.31-1.31 2.705 2.705-1.31 1.31-2.705-2.705zM23.57 4.152a.308.308 0 0 0-.152.399l.012.029.314 1.014-.05.046-1.965 1.965 2.706 2.705L26.4 8.345c.022-.022.043-.045.063-.068l1.016.315a.31.31 0 0 0 .37-.162c1.275-2.679 3.86-3.921 3.973-3.974a.307.307 0 0 0 .145-.42l-1.301-2.558a.313.313 0 0 0-.135-.135L27.987.047a.308.308 0 0 0-.442.133c-.012.027-1.27 2.685-3.974 3.973z"/>
      <path d="M16.704 24.19a1.144 1.144 0 0 1 .86-1.193 5.233 5.233 0 0 0 3.605-3.106.926.926 0 0 0-.203-1.004l-.012-.012a.927.927 0 0 0-1.023-.178c-.942.424-2.213.192-3.332-.551l1.288-1.288-2.706-2.705-.816.816c-.18-.897-.019-1.739.526-2.284.157-.157.341-.285.548-.382a.928.928 0 0 0-.188-1.742 5.235 5.235 0 0 0-6.265 3.873c-.128.532-.63.894-1.193.861a7.483 7.483 0 0 0-5.738 2.168c-2.74 2.74-2.74 7.199 0 9.94l2.543 2.543c2.74 2.74 7.199 2.74 9.94 0a7.482 7.482 0 0 0 2.167-5.755zm-7.234.292L7.518 22.53a.926.926 0 1 1 1.31-1.31l1.952 1.952a.926.926 0 1 1-1.31 1.31zm2.928-2.928-1.952-1.952a.926.926 0 1 1 1.31-1.31l1.952 1.952a.926.926 0 1 1-1.31 1.31z"/>
    </symbol>
    <symbol id="icon-logo" viewBox="0 0 133 32">
      <path d="m37.47 4.093-5.431 27.552h-7.203l2.834-14.524-9.171 11.808h-3.424l-4.999-11.808-2.913 14.524H0L5.51 4.093h6.337l6.455 15.941L30.818 4.093h6.652zM63.883 10.312l-4.251 21.333h-7.085l.433-2.204a8.958 8.958 0 0 1-3.109 1.929 9.961 9.961 0 0 1-3.503.63c-2.335 0-4.198-.63-5.589-1.889-1.364-1.26-2.047-3.057-2.047-5.392 0-.866.092-1.745.276-2.637l2.361-11.769h7.478l-2.204 11.06a7.06 7.06 0 0 0-.157 1.456c0 1.863.958 2.795 2.873 2.795 1.286 0 2.348-.394 3.188-1.181.84-.813 1.417-2.007 1.732-3.582l2.125-10.549h7.478zM72.793 32c-1.837 0-3.608-.197-5.313-.59-1.679-.394-2.991-.892-3.936-1.496l2.716-5.235c.971.604 2.125 1.089 3.464 1.456 1.338.341 2.65.512 3.936.512 2.283 0 3.424-.512 3.424-1.535 0-.42-.276-.722-.827-.905-.525-.21-1.377-.407-2.558-.59-1.574-.289-2.873-.59-3.897-.905-.997-.341-1.876-.905-2.637-1.692s-1.141-1.889-1.141-3.306c0-2.467 1.05-4.369 3.149-5.707 2.125-1.364 4.867-2.047 8.226-2.047 1.522 0 2.991.157 4.408.472 1.417.289 2.65.695 3.7 1.22l-2.637 5.235c-1.784-1.076-3.897-1.614-6.337-1.614-1.155 0-2.02.157-2.598.472-.551.289-.827.669-.827 1.142 0 .42.262.735.787.945.551.184 1.443.394 2.676.63 1.522.262 2.781.564 3.778.905a6.263 6.263 0 0 1 2.637 1.692c.761.787 1.141 1.863 1.141 3.228 0 2.467-1.063 4.369-3.188 5.707s-4.841 2.007-8.147 2.007zM90.224 10.312h7.439l-4.251 21.333h-7.439l4.251-21.333zm4.763-2.361c-1.286 0-2.322-.354-3.109-1.063S90.697 5.3 90.697 4.251c0-1.233.433-2.244 1.299-3.031C92.888.407 94.056 0 95.499 0c1.312 0 2.362.341 3.149 1.023.787.656 1.181 1.509 1.181 2.558 0 1.286-.446 2.335-1.338 3.149s-2.06 1.22-3.503 1.22zM115.631 19.759l7.164 11.887h-8.737l-4.369-7.282-3.07 2.677-.905 4.605h-7.478l5.825-29.205h7.478l-3.03 15.154 8.62-7.282h9.445l-10.942 9.447zM128.571 32c-1.233 0-2.256-.38-3.07-1.141-.787-.787-1.181-1.771-1.181-2.952 0-1.417.46-2.558 1.378-3.424.944-.892 2.085-1.338 3.424-1.338 1.26 0 2.27.38 3.03 1.141.787.735 1.181 1.719 1.181 2.952 0 1.391-.473 2.532-1.417 3.424-.918.892-2.034 1.338-3.346 1.338z"/>
    </symbol>
    <symbol id="icon-Saxophone" viewBox="0 0 32 32">
      <path d="M30.125 11.313h-9.437a1.874 1.874 0 1 0 0 3.75h9.437a1.875 1.875 0 0 0 0-3.75z"/>
      <path d="M30.125 16.938h-9.437v2.736a2.89 2.89 0 0 1-2.885 2.889c-1.37 0-2.56-.974-2.825-2.296l-3.02-16.199A5.066 5.066 0 0 0 5.694.167C3.483.736 1.939 2.819 1.939 5.235v4.203h-1a.937.937 0 1 0 0 1.876h3.812c.518 0 .938-.42.938-.938V6.564a.938.938 0 0 1 1.876 0v6.625h-.938a.937.937 0 1 0 0 1.876h.938v1.875h-.938a.937.937 0 1 0 0 1.876h.938v1.875h-.938a.937.937 0 1 0 0 1.876h1.106c.894 5.318 5.508 9.437 11.081 9.437h.016l.329-.006c6.013-.179 10.967-5.497 10.967-11.778v-3.279z"/>
    </symbol>
    <symbol id="icon-Trumpet" viewBox="0 0 32 32">
      <path d="M31.591 9.839 22.162.409a1.395 1.395 0 0 0-2.377.879l-.746 9.701-4.807 4.807-1.371-1.371a1.395 1.395 0 0 0-1.973 1.972l1.371 1.371-2.742 2.742-1.371-1.371a1.395 1.395 0 0 0-1.973 1.972l1.371 1.371-4.971 4.971-.192-.192a1.394 1.394 0 1 0-1.972 1.972l2.357 2.357c.272.272.629.408.986.408s.714-.136.986-.408a1.395 1.395 0 0 0 0-1.973l-.192-.192 2.907-2.907a4.703 4.703 0 0 0 1.078 1.664c.893.893 2.081 1.385 3.344 1.385s2.45-.492 3.343-1.385l4.715-4.715a4.733 4.733 0 0 0-1.664-7.765l2.743-2.743 9.701-.746a1.395 1.395 0 0 0 .879-2.377zM17.96 21.497l-4.715 4.715c-.366.366-.853.568-1.371.568s-1.005-.202-1.371-.568-.568-.853-.568-1.371.202-1.005.568-1.371l4.717-4.716c.366-.365.852-.566 1.369-.566s1.005.202 1.371.568a1.941 1.941 0 0 1 0 2.742z"/>
    </symbol>
  </defs>
</svg>
